<?xml version="1.0" standalone="no"?>
<!DOCTYPE svg PUBLIC "-//W3C//DTD SVG 20010904//EN"
 "http://www.w3.org/TR/2001/REC-SVG-20010904/DTD/svg10.dtd">
<svg version="1.0" xmlns="http://www.w3.org/2000/svg"
 width="1182.000000pt" height="1292.000000pt" viewBox="0 0 1182.000000 1292.000000"
 preserveAspectRatio="xMidYMid meet">

<g transform="translate(0.000000,1292.000000) scale(0.100000,-0.100000)"
fill="#000000" stroke="none">
<path d="M910 8817 l0 -3193 809 -294 c460 -168 804 -298 797 -302 -21 -12
-346 -128 -358 -128 -8 0 -1150 413 -1230 445 -17 7 -18 -12 -18 -312 l0 -320
624 -226 625 -227 617 225 c340 124 624 225 632 225 14 0 2094 -755 2120 -769
7 -4 -174 -75 -429 -168 l-441 -160 -625 228 -624 228 -625 -228 -625 -228
-625 227 -624 227 0 -317 0 -318 37 -14 c21 -9 302 -111 625 -228 l587 -213
625 228 625 227 625 -227 625 -228 625 227 626 228 625 -227 625 -228 625 228
625 227 625 -228 626 -227 615 224 c339 123 620 227 625 230 6 3 8 133 7 321
l-3 315 -622 -227 -622 -227 -626 228 -625 227 -616 -224 c-339 -123 -624
-224 -633 -224 -9 0 -211 70 -449 157 -300 108 -428 159 -418 165 21 12 2075
760 2102 765 12 3 285 -91 643 -221 l621 -226 625 227 625 227 0 319 c0 300
-1 319 -17 312 -10 -4 -291 -106 -625 -227 l-607 -221 -174 62 c-95 34 -178
66 -185 70 -6 4 353 139 798 301 l810 294 0 3193 0 3193 -5000 0 -5000 0 0
-3193z m5590 -22 c320 -440 586 -805 591 -811 9 -11 -1165 -1634 -1181 -1634
-5 0 -275 365 -599 811 l-591 811 38 52 c295 411 1148 1575 1153 1574 4 -2
269 -363 589 -803z m-2322 115 c209 -113 340 -190 338 -197 -6 -15 -293 -411
-315 -435 -15 -16 -28 -13 -220 57 -112 41 -205 76 -207 78 -1 1 8 144 21 317
14 173 25 328 25 343 0 16 4 27 8 25 4 -1 162 -86 350 -188z m3841 -117 c12
-170 23 -323 24 -342 l2 -33 -200 -74 c-110 -40 -204 -73 -210 -73 -18 -1
-338 450 -328 460 14 14 666 368 679 368 7 1 18 -108 33 -306z m-4384 -969
l620 -226 523 -720 c288 -396 522 -722 519 -724 -5 -5 -1238 443 -1247 453 -4
5 -206 283 -450 618 -244 336 -479 658 -522 718 -43 59 -75 107 -71 107 5 0
287 -102 628 -226z m4657 -498 l-527 -725 -619 -225 c-341 -124 -621 -224
-624 -222 -2 3 231 329 519 725 l524 719 615 226 c338 123 620 225 627 225 7
1 -225 -325 -515 -723z m-4850 -901 c120 -165 227 -307 236 -316 9 -9 515
-197 1125 -419 l1107 -402 1108 403 c609 221 1114 408 1122 415 8 7 114 150
235 318 121 168 225 305 230 306 12 0 1777 -641 1787 -649 3 -3 -1004 -373
-2238 -823 l-2245 -816 -2243 816 c-1235 450 -2242 819 -2239 822 10 10 1769
648 1782 647 8 -1 113 -137 233 -302z"/>
<path d="M5690 8273 c-118 -163 -214 -300 -213 -304 6 -20 427 -589 434 -587
12 4 429 578 429 590 0 11 -422 597 -430 597 -3 0 -102 -133 -220 -296z"/>
<path d="M2778 2557 c-334 -122 -604 -225 -600 -229 12 -12 836 -310 857 -310
11 0 99 30 197 66 l176 65 617 -224 c339 -124 624 -225 634 -225 9 0 294 101
634 225 l617 224 616 -224 c339 -124 624 -225 633 -225 9 0 294 101 634 225
l617 224 178 -65 c97 -36 186 -65 197 -65 21 0 845 297 857 309 7 7 -1206 452
-1232 452 -9 0 -293 -101 -633 -225 l-617 -224 -617 224 c-340 124 -624 225
-633 225 -8 0 -293 -101 -633 -225 l-618 -225 -617 225 c-340 124 -626 225
-637 224 -11 0 -293 -100 -627 -222z"/>
<path d="M5537 1368 c-221 -81 -353 -134 -345 -139 22 -12 705 -259 717 -259
11 0 696 247 719 260 12 6 -699 272 -723 270 -5 -1 -171 -60 -368 -132z"/>
</g>
</svg>
